<?xml version="1.0" encoding="UTF-8"?>
<svg id="Layer_1" data-name="Layer 1" xmlns="http://www.w3.org/2000/svg" viewBox="0 0 161.06 254.09">
  <defs>
    <style>
      .cls-1 {
        stroke: #d64246;
        stroke-width: 12px;
      }

      .cls-1, .cls-2 {
        fill: none;
        stroke-miterlimit: 10;
      }

      .cls-2 {
        stroke: #c1dc88;
        stroke-width: 30px;
      }
    </style>
  </defs>
  <g>
    <g>
      <path class="cls-2" d="M93.98,219.19c-8.99-7.16-18.91-14.11-24.79-24.32-8.35-9.05-12.36-20.44-14.23-32.39-.77-6.43,1.19-12.19,5.58-16.98,2.5-2.39,5.3-4.77,8.67-5.3.92.02.89.94,1.19,1.55.35,3.45.25,6.88.33,10.32.06,2.45.37,4.88.91,7.27l1.85,8.21c.98,4.32,2.63,8.46,4.92,12.25,1.88,3.13,3.98,6.11,6.18,9.3,1.16,1.21,2.03,2.42,3.17,3.91.07.09.14.17.22.24l8.85,8.64c4.18,4.37,8.98,7.84,13.98,10.99"/>
      <path class="cls-2" d="M100.36,139.95c-3.77-1.18-7.78-1.85-11.94-1.95-4.62-.11-9.08.51-13.27,1.75"/>
      <path class="cls-2" d="M56.97,150.63c-6.99,7.11-11.38,16.68-11.62,27.28-.51,22.58,17.94,41.3,41.21,41.83,23.27.53,42.76-17.85,43.28-40.43"/>
      <path class="cls-2" d="M102.73,207.17c3.66-7.88,6.9-16.54,8.3-25.39,1.44-9.43.74-18.92-2.42-27.85-1.71-5.23-5.29-9.28-8.33-13.98,3.66-.07.05.07,0,0,5.6-.13,10.42,2.73,14.94,5.58.6.62,1.2.94,2.1,1.57,4.2,3.45,7.16,7.49,9.5,12.13,1.44,3.7,2.26,7.99,2.78,11.97,1.14,13.75-1.86,21.33-7.81,31.47-1.23,2.1-4.13,4.82-6.18,6.68-1.94,1.77-5.75,3.92-8.99,5.98-1.49.95-7.59,3.01-9.13,3.28"/>
      <path class="cls-2" d="M56.09,168.4c-1.34.61-2.65,1.32-3.93,2.12-2.43,1.53-4.59,3.59-6.82,5.39"/>
      <path class="cls-2" d="M109.75,187.99c-7.14-8.05-15.56-15.19-25.49-19.53-3.61-1.58-7.4-2.55-11.21-2.89"/>
      <path class="cls-2" d="M70.18,141.12c3.12-1.72,6.43-1.51,9.71-.05,3.32,1.6,6.66,2.59,9.99,3.89,1.82.65,3.32,1.6,5.14,2.25,4.63,1.97,9.11,4.21,13.45,6.67"/>
    </g>
    <path class="cls-2" d="M61.7,211.18c-1.49-.04-7.07.02-9.82,1.18-1.08.46-5.85,2.48-7,6.08-1.76,5.51,5.8,12.02,6.88,12.94,8.81,7.59,24.35,10.46,34.36,4.52,2.97-1.77,4.43-3.7,8.53-4.8,5.38-1.44,11.4,3.21,15.78,2.03,3.34-.43,8.45-1.5,13.88-4.54,10.09-5.64,14.63-14.35,16.55-18.15,7.84-15.54,4.78-31.5,3.74-36.56-5.74-27.89-26.91-39.39-21.35-51.77,1.82-4.04,3.82-2.25,10.14-9.87,3.24-3.91,10.62-13.05,11.74-26.42.63-7.51-.9-14.05-2.13-17.61-1.48-4.27-2.22-6.4-3.47-8.01-1.03-1.31-2.4-2.63-2.67-4.8-.21-1.72.38-3.09.53-3.47,1.82-4.53,5.42-29.51-4-35.49-5.39-3.42-13.62.27-14.1.48-4.14,1.91-5.51,4.72-13.66,9.92-1.64,1.04-2.62,2.4-4,2.4-13.61,0-22.95-2.17-41.82,2.47-3.18.78-2.38.9-4.35,1.26-15.92,2.95-26.58-12.55-33.89-8.54-2.23,1.22-2.91,3.58-4.27,8.27-2.02,6.97-.22,11.31.8,22.15.07.74.68,7.44.53,14.94-.28,14.19-2.96,14.77-2.4,24.29.16,2.67,1.26,17.8,8.01,23.22.73.58,3.77,2.86,7.21,6.67,0,0,1.59,1.76,2.67,3.2,5.82,7.75-23.97,45.95-18.41,76.32.59,3.21,2.44,13.35,10.67,21.88,4.09,4.24,8.4,6.67,11.21,8.01"/>
  </g>
  <g>
    <g>
      <path class="cls-1" d="M94.1,219.19c-8.99-7.16-18.91-14.11-24.79-24.32-8.35-9.05-12.36-20.44-14.23-32.39-.77-6.43,1.19-12.19,5.58-16.98,2.5-2.39,5.3-4.77,8.67-5.3.92.02.89.94,1.19,1.55.35,3.45.25,6.88.33,10.32.06,2.45.37,4.88.91,7.27l1.85,8.21c.98,4.32,2.63,8.46,4.92,12.25,1.88,3.13,3.98,6.11,6.18,9.3,1.16,1.21,2.03,2.42,3.17,3.91.07.09.14.17.22.24l8.85,8.64c4.18,4.37,8.98,7.84,13.98,10.99"/>
      <path class="cls-1" d="M100.47,139.95c-3.77-1.18-7.78-1.85-11.94-1.95-4.62-.11-9.08.51-13.27,1.75"/>
      <path class="cls-1" d="M57.08,150.63c-6.99,7.11-11.38,16.68-11.62,27.28-.51,22.58,17.94,41.3,41.21,41.83,23.27.53,42.76-17.85,43.28-40.43"/>
      <path class="cls-1" d="M102.84,207.17c3.66-7.88,6.9-16.54,8.3-25.39,1.44-9.43.74-18.92-2.42-27.85-1.71-5.23-5.29-9.28-8.33-13.98,3.66-.07.05.07,0,0,5.6-.13,10.42,2.73,14.94,5.58.6.62,1.2.94,2.1,1.57,4.2,3.45,7.16,7.49,9.5,12.13,1.44,3.7,2.26,7.99,2.78,11.97,1.14,13.75-1.86,21.33-7.81,31.47-1.23,2.1-4.13,4.82-6.18,6.68-1.94,1.77-5.75,3.92-8.99,5.98-1.49.95-7.59,3.01-9.13,3.28"/>
      <path class="cls-1" d="M56.2,168.4c-1.34.61-2.65,1.32-3.93,2.12-2.43,1.53-4.59,3.59-6.82,5.39"/>
      <path class="cls-1" d="M109.86,187.99c-7.14-8.05-15.56-15.19-25.49-19.53-3.61-1.58-7.4-2.55-11.21-2.89"/>
      <path class="cls-1" d="M70.29,141.12c3.12-1.72,6.43-1.51,9.71-.05,3.32,1.6,6.66,2.59,9.99,3.89,1.82.65,3.32,1.6,5.14,2.25,4.63,1.97,9.11,4.21,13.45,6.67"/>
    </g>
    <path class="cls-1" d="M61.81,211.18c-1.49-.04-7.07.02-9.82,1.18-1.08.46-5.85,2.48-7,6.08-1.76,5.51,5.8,12.02,6.88,12.94,8.81,7.59,24.35,10.46,34.36,4.52,2.97-1.77,4.43-3.7,8.53-4.8,5.38-1.44,11.4,3.21,15.78,2.03,3.34-.43,8.45-1.5,13.88-4.54,10.09-5.64,14.63-14.35,16.55-18.15,7.84-15.54,4.78-31.5,3.74-36.56-5.74-27.89-26.91-39.39-21.35-51.77,1.82-4.04,3.82-2.25,10.14-9.87,3.24-3.91,10.62-13.05,11.74-26.42.63-7.51-.9-14.05-2.13-17.61-1.48-4.27-2.22-6.4-3.47-8.01-1.03-1.31-2.4-2.63-2.67-4.8-.21-1.72.38-3.09.53-3.47,1.82-4.53,5.42-29.51-4-35.49-5.39-3.42-13.62.27-14.1.48-4.14,1.91-5.51,4.72-13.66,9.92-1.64,1.04-2.62,2.4-4,2.4-13.61,0-22.95-2.17-41.82,2.47-3.18.78-2.38.9-4.35,1.26-15.92,2.95-26.58-12.55-33.89-8.54-2.23,1.22-2.91,3.58-4.27,8.27-2.02,6.97-.22,11.31.8,22.15.07.74.68,7.44.53,14.94-.28,14.19-2.96,14.77-2.4,24.29.16,2.67,1.26,17.8,8.01,23.22.73.58,3.77,2.86,7.21,6.67,0,0,1.59,1.76,2.67,3.2,5.82,7.75-23.97,45.95-18.41,76.32.59,3.21,2.44,13.35,10.67,21.88,4.09,4.24,8.4,6.67,11.21,8.01"/>
  </g>
</svg>