<?xml version="1.0" encoding="UTF-8"?>
<svg id="Layer_1" data-name="Layer 1" xmlns="http://www.w3.org/2000/svg" viewBox="0 0 485.13 482.41">
  <defs>
    <style>
      .cls-1 {
        fill: none;
        stroke: #125b33;
        stroke-miterlimit: 10;
        stroke-width: 12px;
      }
    </style>
  </defs>
  <g>
    <path class="cls-1" d="M152.46,439.52c-16.67-13.28-35.07-26.16-45.97-45.09-15.48-16.78-22.92-37.9-26.38-60.06-1.43-11.93,2.21-22.6,10.34-31.48,4.63-4.43,9.83-8.84,16.08-9.83,1.7.04,1.66,1.74,2.2,2.88.65,6.39.46,12.76.62,19.13.11,4.54.69,9.06,1.69,13.49l3.44,15.22c1.81,8.01,4.88,15.68,9.12,22.72,3.49,5.8,7.39,11.34,11.46,17.25,2.15,2.25,3.77,4.49,5.87,7.26.12.16.26.31.4.45l16.4,16.02c7.74,8.1,16.66,14.54,25.92,20.38"/>
    <path class="cls-1" d="M164.29,292.57c-7-2.18-14.43-3.44-22.15-3.61-8.56-.19-16.84.95-24.6,3.25"/>
    <path class="cls-1" d="M83.82,312.38c-12.97,13.18-21.1,30.92-21.54,50.59-.95,41.86,33.26,76.59,76.41,77.57,43.15.98,79.29-33.11,80.25-74.97"/>
    <path class="cls-1" d="M168.68,417.23c6.78-14.62,12.79-30.68,15.39-47.09,2.66-17.5,1.36-35.08-4.49-51.64-3.18-9.7-9.8-17.21-15.45-25.93,6.79-.14.09.13,0,0,10.38-.24,19.32,5.06,27.7,10.35,1.11,1.16,2.23,1.75,3.9,2.92,7.78,6.41,13.28,13.89,17.61,22.49,2.68,6.86,4.19,14.82,5.16,22.2,2.12,25.5-3.45,39.54-14.47,58.36-2.28,3.89-7.66,8.93-11.46,12.4-3.59,3.28-10.67,7.27-16.67,11.08-2.77,1.76-14.07,5.59-16.92,6.07"/>
    <path class="cls-1" d="M82.19,345.33c-2.49,1.13-4.92,2.44-7.28,3.93-4.51,2.83-8.52,6.66-12.65,9.99"/>
    <path class="cls-1" d="M181.7,381.66c-13.24-14.93-28.85-28.17-47.26-36.22-6.69-2.93-13.72-4.73-20.79-5.36"/>
    <path class="cls-1" d="M108.32,294.74c5.79-3.18,11.92-2.8,18-.1,6.16,2.97,12.35,4.81,18.52,7.22,3.37,1.21,6.16,2.97,9.53,4.18,8.58,3.66,16.89,7.81,24.95,12.36"/>
  </g>
  <path class="cls-1" d="M92.6,424.67c-2.77-.07-13.11.03-18.2,2.19-2.01.85-10.85,4.59-12.98,11.27-3.26,10.21,10.76,22.28,12.76,24,16.34,14.07,45.16,19.4,63.72,8.39,5.52-3.27,8.22-6.86,15.82-8.89,9.98-2.67,21.14,5.95,29.26,3.77,6.19-.79,15.68-2.79,25.73-8.41,18.71-10.46,27.13-26.62,30.68-33.65,14.53-28.81,8.86-58.42,6.93-67.8-10.64-51.72-49.91-73.05-39.59-96,3.37-7.5,7.08-4.17,18.8-18.31,6.01-7.26,19.69-24.21,21.77-48.99,1.17-13.92-1.67-26.05-3.96-32.66-2.74-7.92-4.11-11.88-6.43-14.85-1.9-2.43-4.45-4.89-4.95-8.91-.39-3.19.71-5.72.99-6.43,3.37-8.4,10.06-54.72-7.42-65.82-10-6.35-25.26.49-26.14.9-7.67,3.55-10.21,8.76-25.33,18.4-3.03,1.93-4.86,4.45-7.42,4.45-25.24,0-42.55-4.03-77.55,4.58-5.89,1.45-4.41,1.67-8.06,2.34-29.52,5.46-49.29-23.28-62.85-15.84-4.13,2.27-5.39,6.63-7.92,15.34-3.75,12.93-.4,20.97,1.48,41.07.13,1.37,1.26,13.8.99,27.71-.52,26.32-5.49,27.39-4.45,45.03.29,4.96,2.33,33.01,14.85,43.05,1.35,1.08,6.99,5.31,13.36,12.37,0,0,2.94,3.27,4.95,5.94,10.78,14.37-44.45,85.21-34.15,141.53,1.09,5.94,4.53,24.76,19.79,40.58,7.58,7.86,15.57,12.37,20.78,14.85"/>
</svg>