<?xml version="1.0" encoding="UTF-8"?>
<svg xmlns="http://www.w3.org/2000/svg" viewBox="0 0 612 612">
  <defs>
    <style>
      .cls-1 {
        stroke: #d64246;
        stroke-width: 12px;
      }

      .cls-1, .cls-2, .cls-3 {
        fill: none;
        stroke-miterlimit: 10;
      }

      .cls-4 {
        fill: #fee000;
        stroke-width: 0px;
      }

      .cls-2, .cls-3 {
        stroke: #fcd20f;
        stroke-width: 5px;
      }

      .cls-3 {
        stroke-linecap: round;
      }
    </style>
  </defs>
  <g id="Layer_1" data-name="Layer 1">
    <g>
      <g>
        <path class="cls-1" d="M324.51,394.05c-8.59-6.84-18.07-13.48-23.69-23.24-7.97-8.64-11.81-19.53-13.6-30.95-.74-6.14,1.14-11.65,5.33-16.22,2.39-2.28,5.06-4.55,8.29-5.06.88.02.86.89,1.13,1.48.34,3.29.24,6.57.32,9.86.06,2.34.35,4.67.87,6.95l1.77,7.84c.93,4.13,2.51,8.08,4.7,11.71,1.8,2.99,3.81,5.84,5.9,8.89,1.11,1.16,1.94,2.31,3.03,3.74.06.08.13.16.21.23l8.45,8.26c3.99,4.18,8.58,7.49,13.36,10.5"/>
        <path class="cls-1" d="M330.6,318.33c-3.61-1.12-7.44-1.77-11.41-1.86-4.41-.1-8.68.49-12.68,1.67"/>
        <path class="cls-1" d="M289.14,328.54c-6.68,6.79-10.87,15.94-11.1,26.07-.49,21.57,17.14,39.47,39.37,39.97,22.24.51,40.86-17.06,41.35-38.63"/>
        <path class="cls-1" d="M332.87,382.56c3.49-7.53,6.59-15.81,7.93-24.27,1.37-9.02.7-18.08-2.31-26.61-1.64-5-5.05-8.87-7.96-13.36,3.5-.07.05.07,0,0,5.35-.12,9.96,2.61,14.27,5.33.57.6,1.15.9,2.01,1.5,4.01,3.3,6.84,7.16,9.07,11.59,1.38,3.53,2.16,7.64,2.66,11.44,1.09,13.14-1.78,20.38-7.46,30.07-1.18,2.01-3.95,4.6-5.9,6.39-1.85,1.69-5.5,3.75-8.59,5.71-1.42.9-7.25,2.88-8.72,3.13"/>
        <path class="cls-1" d="M288.3,345.52c-1.28.58-2.54,1.26-3.75,2.02-2.32,1.46-4.39,3.43-6.52,5.15"/>
        <path class="cls-1" d="M339.58,364.24c-6.82-7.69-14.87-14.52-24.35-18.66-3.45-1.51-7.07-2.44-10.71-2.76"/>
        <path class="cls-1" d="M301.77,319.45c2.99-1.64,6.14-1.44,9.28-.05,3.18,1.53,6.36,2.48,9.55,3.72,1.74.62,3.18,1.53,4.91,2.15,4.42,1.89,8.71,4.02,12.86,6.37"/>
      </g>
      <path class="cls-1" d="M293.66,386.4c-1.43-.04-6.75.02-9.38,1.13-1.03.44-5.59,2.37-6.69,5.81-1.68,5.26,5.54,11.48,6.57,12.37,8.42,7.25,23.27,10,32.83,4.32,2.84-1.69,4.24-3.53,8.15-4.58,5.14-1.38,10.9,3.07,15.08,1.94,3.19-.41,8.08-1.44,13.26-4.33,9.64-5.39,13.98-13.72,15.81-17.34,7.49-14.84,4.56-30.1,3.57-34.93-5.48-26.65-25.72-37.64-20.4-49.47,1.74-3.86,3.65-2.15,9.69-9.43,3.1-3.74,10.14-12.47,11.22-25.24.6-7.17-.86-13.42-2.04-16.83-1.41-4.08-2.12-6.12-3.31-7.65-.98-1.25-2.29-2.52-2.55-4.59-.2-1.64.36-2.95.51-3.31,1.74-4.33,5.18-28.2-3.82-33.91-5.15-3.27-13.02.25-13.47.46-3.95,1.83-5.26,4.51-13.05,9.48-1.56,1-2.51,2.3-3.82,2.3-13,0-21.93-2.08-39.96,2.36-3.04.75-2.27.86-4.15,1.21-15.21,2.81-25.4-11.99-32.38-8.16-2.13,1.17-2.78,3.42-4.08,7.9-1.93,6.66-.21,10.81.77,21.16.07.71.65,7.11.51,14.28-.27,13.56-2.83,14.11-2.3,23.2.15,2.55,1.2,17.01,7.65,22.18.7.56,3.6,2.73,6.88,6.37,0,0,1.52,1.68,2.55,3.06,5.56,7.4-22.91,43.91-17.59,72.93.56,3.06,2.34,12.76,10.2,20.91,3.91,4.05,8.02,6.37,10.71,7.65"/>
    </g>
  </g>
  <g id="Layer_3" data-name="Layer 3">
    <path class="cls-4" d="M215.44,194.88c-2.21,6.27-3.07,14.32-1.95,21.57.97,6.31,3.1,12.09,5.52,15.41.43.6,1.37,2.39,3.73,5.65,1.54,2.12,4.99,6.33,3.92,8.43-1.52,2.99-2.43,4.22-2.03,7.38.65,5.16,7.04,9.72,10.61,8.42l2.73-.64c.74-.19,1.5-.4,2.32-.6l64.74-12.22c.48-.09.96-.22,1.41-.39l9.24-3.41c.45-.16.88-.35,1.31-.57,3.75-1.89,7.72-4.2,11.77-7.01,12.41-8.62,20.44-19.38,26.65-27.15,1.17-1.46,2.1-2.6,3.01-3.87.79-1.11,1.84-2.55,2.37-4.49.36-1.32.4-2.5.35-3.39-1.42-6.51-4.67-10.14-6.27-11.67-4.3-4.14-9.41-5.37-14.74-6.66-2.17-.52-4.18-.85-5.96-1.06-2.49-.29-4.74-1.56-6.3-3.52-1.52-1.9-3.57-3.85-6.32-5.28-.22-.11-.42-.21-.61-.3-2.69-1.27-5.06-3.13-7-5.39s-3.49-4.43-5.14-6.05c-7.67-7.48-19.07-10.56-24.07-10.52-2.86.02-10.37.71-13.8.75-2.39.03-4.03-1.45-7.14-1.73-11.9-1.07-18.92,2-21.78,3.31-8.54,3.88-12.9,12.29-13.77,13.97-1.34,2.58-2.22,4.5-3.58,11.42-.09.47-.92.38-1.47.53-1.1.31-2.6,1.9-2.98,3.34-.52,1.95-.91,3.11-1.04,3.52-1.18,3.66-3.27,10.94-3.73,12.23Z"/>
  </g>
  <g id="Layer_4" data-name="Layer 4">
    <g>
      <path class="cls-2" d="M217.49,193.51c-2.28,6.1-3.28,13.99-2.33,21.13.83,6.22,2.8,11.94,5.11,15.26.41.6,1.3,2.38,3.54,5.64,1.46,2.12,4.77,6.34,3.68,8.37-1.55,2.9-2.46,4.09-2.13,7.19.54,5.08,6.71,9.72,10.24,8.53l2.69-.56c.73-.17,1.48-.36,2.28-.54l63.66-10.44c.48-.08.94-.2,1.39-.35l9.12-3.12c.44-.15.87-.32,1.29-.52,3.71-1.77,7.65-3.93,11.67-6.6,12.33-8.17,20.4-18.53,26.64-26.01,1.17-1.41,2.11-2.51,3.02-3.73.8-1.07,1.85-2.46,2.41-4.36.38-1.29.44-2.44.41-3.32-1.27-6.42-4.38-10.07-5.91-11.61-4.13-4.17-9.11-5.5-14.31-6.89-2.12-.57-4.08-.94-5.82-1.19-2.43-.35-4.62-1.65-6.11-3.61-1.45-1.91-3.42-3.86-6.09-5.34-.21-.12-.41-.22-.59-.31-2.61-1.31-4.9-3.2-6.75-5.46-1.92-2.34-3.33-4.44-4.92-6.06-7.37-7.52-18.48-10.83-23.38-10.91-2.8-.05-10.17.45-13.53.41-2.34-.03-3.92-1.52-6.97-1.87-11.63-1.34-18.57,1.51-21.41,2.72-8.44,3.61-12.87,11.76-13.76,13.39-1.36,2.5-2.26,4.36-3.73,11.13-.1.46-.91.35-1.45.49-1.08.28-2.58,1.8-2.98,3.2-.54,1.9-.95,3.03-1.09,3.44-1.23,3.57-3.42,10.66-3.89,11.92Z"/>
      <path class="cls-3" d="M232.75,246.93c4.82.68,11.42,1.24,19.22.71,11.48-.78,19.87-3.53,24.63-5.13,0,0,8.18-1.76,21.32-9.44,7.97-4.66,18.11-12.2,28.36-20.87,1.59-1.34,4.15-3.59,6.3-7.31,3.79-6.57,3.82-13.48,3.42-17.68"/>
      <path class="cls-3" d="M328.83,195.05c-2.93-3.9-6.13-7.89-9.61-11.92-7.58-8.77-15.65-18.17-27.98-27.17-3.36-2.45-7.3-5.97-9.23-7.16"/>
      <path class="cls-3" d="M227.31,173.01c1.73-1.12,8.47-5.1,12.01-5.72,8.43-1.47,15.57,2.85,19.81,5.51,18.87,11.8,44.12,45.59,45.99,48.11"/>
      <path class="cls-3" d="M221.37,181.6c1.63-1.28,8.63-4.2,12.16-5.19,7.91-2.2,14.88.85,19.8,3.08,12.26,5.56,21.08,15.45,26.26,22.48,1.77,2.41,2.68,5.29,2.99,8.27.03.25.09.49.19.7,1.21,2.51,2.11,3.85,3.3,5.84,2.82,4.69,6.33,8.63,7.44,9.3"/>
    </g>
  </g>
</svg>